<svg version="1.1" xmlns="http://www.w3.org/2000/svg" xmlns:xlink="http://www.w3.org/1999/xlink" width="16" height="16" viewBox="0,0,256,256"><g fill="#ffffff" fill-rule="nonzero" stroke="none" stroke-width="1" stroke-linecap="butt" stroke-linejoin="miter" stroke-miterlimit="10" stroke-dasharray="" stroke-dashoffset="0" font-family="none" font-weight="none" font-size="none" text-anchor="none" style="mix-blend-mode: normal"><g transform="scale(16,16)"><path d="M8,15c-3.86599,0 -7,-3.13401 -7,-7c0,-3.86599 3.13401,-7 7,-7c3.86599,0 7,3.13401 7,7c0,3.86599 -3.13401,7 -7,7zM8,16c4.41828,0 8,-3.58172 8,-8c0,-4.41828 -3.58172,-8 -8,-8c-4.41828,0 -8,3.58172 -8,8c0,4.41828 3.58172,8 8,8z"></path><path d="M6.271,5.055c0.16674,-0.08586 0.36751,-0.07119 0.52,0.038l3.5,2.5c0.13151,0.09384 0.20957,0.24544 0.20957,0.407c0,0.16156 -0.07806,0.31316 -0.20957,0.407l-3.5,2.5c-0.15243,0.1091 -0.35308,0.12377 -0.51976,0.038c-0.16668,-0.08576 -0.27139,-0.25755 -0.27124,-0.445v-5c-0.0002,-0.1874 0.10441,-0.35917 0.271,-0.445z"></path></g></g></svg>